<svg xmlns="http://www.w3.org/2000/svg" xmlns:xlink="http://www.w3.org/1999/xlink" width="500" zoomAndPan="magnify" viewBox="0 0 375 374.999991" height="500" preserveAspectRatio="xMidYMid meet" version="1.0"><defs><g/><clipPath id="9df4394c29"><path d="M 157.667969 126 L 200 126 L 200 201.445312 L 157.667969 201.445312 Z M 157.667969 126 " clip-rule="nonzero"/></clipPath><clipPath id="7eff96f3aa"><path d="M 175 87.445312 L 217.667969 87.445312 L 217.667969 163 L 175 163 Z M 175 87.445312 " clip-rule="nonzero"/></clipPath></defs><g clip-path="url(#9df4394c29)"><path fill="#fffdfb" d="M 170.027344 126.8125 L 193.625 158.050781 C 194.238281 158.863281 194.8125 159.703125 195.34375 160.574219 C 195.875 161.441406 196.363281 162.335938 196.804688 163.25 C 197.25 164.167969 197.644531 165.101562 197.996094 166.058594 C 198.347656 167.015625 198.652344 167.984375 198.910156 168.96875 C 199.167969 169.957031 199.375 170.953125 199.53125 171.957031 C 199.691406 172.964844 199.800781 173.972656 199.859375 174.992188 C 199.917969 176.007812 199.925781 177.023438 199.886719 178.042969 C 199.847656 179.058594 199.753906 180.070312 199.617188 181.078125 C 199.476562 182.089844 199.285156 183.085938 199.046875 184.078125 C 198.808594 185.066406 198.523438 186.042969 198.1875 187.003906 C 197.855469 187.96875 197.472656 188.910156 197.046875 189.835938 C 196.621094 190.757812 196.148438 191.660156 195.636719 192.539062 C 195.121094 193.417969 194.5625 194.265625 193.964844 195.089844 C 193.363281 195.914062 192.726562 196.707031 192.050781 197.46875 C 191.375 198.226562 190.660156 198.953125 189.914062 199.644531 C 189.164062 200.335938 188.386719 200.988281 187.574219 201.601562 L 163.976562 170.363281 C 163.359375 169.550781 162.789062 168.710938 162.257812 167.84375 C 161.726562 166.976562 161.238281 166.082031 160.796875 165.164062 C 160.351562 164.25 159.953125 163.3125 159.601562 162.359375 C 159.25 161.402344 158.945312 160.433594 158.691406 159.445312 C 158.433594 158.460938 158.226562 157.464844 158.070312 156.460938 C 157.910156 155.453125 157.800781 154.441406 157.742188 153.425781 C 157.683594 152.410156 157.671875 151.394531 157.714844 150.375 C 157.753906 149.359375 157.84375 148.34375 157.984375 147.335938 C 158.125 146.328125 158.316406 145.328125 158.554688 144.339844 C 158.792969 143.347656 159.078125 142.375 159.410156 141.410156 C 159.746094 140.449219 160.125 139.507812 160.550781 138.582031 C 160.980469 137.65625 161.449219 136.757812 161.964844 135.878906 C 162.480469 135 163.039062 134.148438 163.636719 133.324219 C 164.234375 132.503906 164.875 131.710938 165.550781 130.949219 C 166.226562 130.1875 166.9375 129.460938 167.6875 128.773438 C 168.433594 128.082031 169.214844 127.429688 170.027344 126.8125 Z M 170.027344 126.8125 " fill-opacity="1" fill-rule="nonzero"/></g><g clip-path="url(#7eff96f3aa)"><path fill="#000000" d="M 187.4375 87.488281 L 211.035156 118.726562 C 211.648438 119.539062 212.222656 120.382812 212.753906 121.25 C 213.285156 122.121094 213.773438 123.011719 214.214844 123.929688 C 214.660156 124.847656 215.058594 125.78125 215.410156 126.738281 C 215.761719 127.695312 216.066406 128.664062 216.320312 129.652344 C 216.578125 130.636719 216.785156 131.632812 216.941406 132.640625 C 217.101562 133.644531 217.210938 134.65625 217.269531 135.675781 C 217.328125 136.691406 217.335938 137.707031 217.296875 138.726562 C 217.253906 139.742188 217.164062 140.757812 217.023438 141.765625 C 216.882812 142.773438 216.695312 143.773438 216.453125 144.765625 C 216.214844 145.753906 215.929688 146.730469 215.59375 147.691406 C 215.261719 148.65625 214.878906 149.597656 214.453125 150.523438 C 214.023438 151.449219 213.554688 152.347656 213.039062 153.226562 C 212.519531 154.105469 211.964844 154.957031 211.363281 155.78125 C 210.765625 156.601562 210.125 157.394531 209.449219 158.15625 C 208.769531 158.917969 208.058594 159.644531 207.308594 160.332031 C 206.5625 161.023438 205.78125 161.675781 204.96875 162.289062 L 181.367188 131.054688 C 180.753906 130.242188 180.183594 129.398438 179.652344 128.53125 C 179.121094 127.660156 178.632812 126.769531 178.1875 125.851562 C 177.746094 124.933594 177.347656 124 176.996094 123.042969 C 176.644531 122.085938 176.339844 121.117188 176.082031 120.128906 C 175.828125 119.144531 175.621094 118.148438 175.460938 117.140625 C 175.304688 116.136719 175.195312 115.125 175.136719 114.105469 C 175.078125 113.089844 175.066406 112.074219 175.109375 111.054688 C 175.148438 110.035156 175.238281 109.023438 175.378906 108.015625 C 175.519531 107.007812 175.710938 106.007812 175.949219 105.015625 C 176.1875 104.027344 176.476562 103.050781 176.808594 102.085938 C 177.144531 101.125 177.523438 100.183594 177.953125 99.257812 C 178.378906 98.332031 178.851562 97.429688 179.367188 96.554688 C 179.882812 95.675781 180.441406 94.824219 181.039062 94 C 181.640625 93.175781 182.277344 92.386719 182.957031 91.625 C 183.632812 90.863281 184.347656 90.136719 185.09375 89.445312 C 185.84375 88.757812 186.625 88.105469 187.4375 87.488281 Z M 187.4375 87.488281 " fill-opacity="1" fill-rule="nonzero"/></g><g fill="#000000" fill-opacity="1"><g transform="translate(21.914066, 255.45965)"><g><path d="M 53.5 -36.53125 L 43.984375 0 L 33.203125 0 L 27.375 -24.046875 L 21.34375 0 L 10.5625 0 L 1.296875 -36.53125 L 10.828125 -36.53125 L 16.078125 -9.9375 L 22.59375 -36.53125 L 32.375 -36.53125 L 38.625 -9.9375 L 43.921875 -36.53125 Z M 53.5 -36.53125 "/></g></g></g><g fill="#000000" fill-opacity="1"><g transform="translate(76.663192, 255.45965)"><g><path d="M 16.453125 0.421875 C 13.597656 0.421875 11.035156 -0.1875 8.765625 -1.40625 C 6.492188 -2.625 4.707031 -4.359375 3.40625 -6.609375 C 2.101562 -8.867188 1.453125 -11.503906 1.453125 -14.515625 C 1.453125 -17.503906 2.109375 -20.132812 3.421875 -22.40625 C 4.742188 -24.675781 6.550781 -26.414062 8.84375 -27.625 C 11.132812 -28.84375 13.703125 -29.453125 16.546875 -29.453125 C 19.390625 -29.453125 21.957031 -28.84375 24.25 -27.625 C 26.539062 -26.414062 28.34375 -24.675781 29.65625 -22.40625 C 30.976562 -20.132812 31.640625 -17.503906 31.640625 -14.515625 C 31.640625 -11.535156 30.972656 -8.910156 29.640625 -6.640625 C 28.304688 -4.367188 26.484375 -2.625 24.171875 -1.40625 C 21.867188 -0.1875 19.296875 0.421875 16.453125 0.421875 Z M 16.453125 -7.28125 C 18.148438 -7.28125 19.597656 -7.90625 20.796875 -9.15625 C 21.992188 -10.40625 22.59375 -12.191406 22.59375 -14.515625 C 22.59375 -16.847656 22.007812 -18.632812 20.84375 -19.875 C 19.675781 -21.125 18.242188 -21.75 16.546875 -21.75 C 14.816406 -21.75 13.378906 -21.132812 12.234375 -19.90625 C 11.085938 -18.675781 10.515625 -16.878906 10.515625 -14.515625 C 10.515625 -12.191406 11.078125 -10.40625 12.203125 -9.15625 C 13.328125 -7.90625 14.742188 -7.28125 16.453125 -7.28125 Z M 16.453125 -7.28125 "/></g></g></g><g fill="#000000" fill-opacity="1"><g transform="translate(109.814515, 255.45965)"><g><path d="M 12.125 -24.203125 C 13.164062 -25.796875 14.46875 -27.050781 16.03125 -27.96875 C 17.59375 -28.894531 19.328125 -29.359375 21.234375 -29.359375 L 21.234375 -19.9375 L 18.78125 -19.9375 C 16.5625 -19.9375 14.894531 -19.457031 13.78125 -18.5 C 12.675781 -17.550781 12.125 -15.878906 12.125 -13.484375 L 12.125 0 L 3.234375 0 L 3.234375 -29.046875 L 12.125 -29.046875 Z M 12.125 -24.203125 "/></g></g></g><g fill="#000000" fill-opacity="1"><g transform="translate(132.08887, 255.45965)"><g><path d="M 20.96875 0 L 12.125 -12.171875 L 12.125 0 L 3.234375 0 L 3.234375 -38.515625 L 12.125 -38.515625 L 12.125 -17.234375 L 20.921875 -29.046875 L 31.90625 -29.046875 L 19.828125 -14.46875 L 32.015625 0 Z M 20.96875 0 "/></g></g></g><g fill="#000000" fill-opacity="1"><g transform="translate(164.251378, 255.45965)"><g><path d="M 16.453125 0.359375 C 13.773438 0.359375 11.378906 -0.0703125 9.265625 -0.9375 C 7.148438 -1.800781 5.457031 -3.082031 4.1875 -4.78125 C 2.925781 -6.488281 2.257812 -8.539062 2.1875 -10.9375 L 11.65625 -10.9375 C 11.789062 -9.582031 12.257812 -8.546875 13.0625 -7.828125 C 13.863281 -7.117188 14.90625 -6.765625 16.1875 -6.765625 C 17.507812 -6.765625 18.550781 -7.066406 19.3125 -7.671875 C 20.070312 -8.285156 20.453125 -9.128906 20.453125 -10.203125 C 20.453125 -11.097656 20.144531 -11.84375 19.53125 -12.4375 C 18.925781 -13.03125 18.179688 -13.515625 17.296875 -13.890625 C 16.421875 -14.273438 15.164062 -14.710938 13.53125 -15.203125 C 11.175781 -15.929688 9.25 -16.660156 7.75 -17.390625 C 6.257812 -18.117188 4.976562 -19.191406 3.90625 -20.609375 C 2.832031 -22.035156 2.296875 -23.890625 2.296875 -26.171875 C 2.296875 -29.578125 3.523438 -32.242188 5.984375 -34.171875 C 8.453125 -36.097656 11.660156 -37.0625 15.609375 -37.0625 C 19.640625 -37.0625 22.882812 -36.097656 25.34375 -34.171875 C 27.8125 -32.242188 29.128906 -29.5625 29.296875 -26.125 L 19.671875 -26.125 C 19.597656 -27.300781 19.160156 -28.226562 18.359375 -28.90625 C 17.566406 -29.582031 16.546875 -29.921875 15.296875 -29.921875 C 14.222656 -29.921875 13.351562 -29.632812 12.6875 -29.0625 C 12.03125 -28.488281 11.703125 -27.664062 11.703125 -26.59375 C 11.703125 -25.414062 12.257812 -24.492188 13.375 -23.828125 C 14.488281 -23.171875 16.222656 -22.460938 18.578125 -21.703125 C 20.941406 -20.898438 22.859375 -20.132812 24.328125 -19.40625 C 25.804688 -18.6875 27.082031 -17.628906 28.15625 -16.234375 C 29.226562 -14.847656 29.765625 -13.0625 29.765625 -10.875 C 29.765625 -8.789062 29.234375 -6.898438 28.171875 -5.203125 C 27.117188 -3.503906 25.585938 -2.148438 23.578125 -1.140625 C 21.566406 -0.140625 19.191406 0.359375 16.453125 0.359375 Z M 16.453125 0.359375 "/></g></g></g><g fill="#000000" fill-opacity="1"><g transform="translate(196.257766, 255.45965)"><g><path d="M 12.125 -24.9375 C 12.988281 -26.28125 14.1875 -27.367188 15.71875 -28.203125 C 17.25 -29.035156 19.035156 -29.453125 21.078125 -29.453125 C 23.472656 -29.453125 25.640625 -28.84375 27.578125 -27.625 C 29.523438 -26.414062 31.0625 -24.679688 32.1875 -22.421875 C 33.3125 -20.171875 33.875 -17.554688 33.875 -14.578125 C 33.875 -11.585938 33.3125 -8.957031 32.1875 -6.6875 C 31.0625 -4.414062 29.523438 -2.660156 27.578125 -1.421875 C 25.640625 -0.191406 23.472656 0.421875 21.078125 0.421875 C 19.066406 0.421875 17.285156 0.00390625 15.734375 -0.828125 C 14.191406 -1.660156 12.988281 -2.738281 12.125 -4.0625 L 12.125 13.84375 L 3.234375 13.84375 L 3.234375 -29.046875 L 12.125 -29.046875 Z M 24.828125 -14.578125 C 24.828125 -16.796875 24.207031 -18.535156 22.96875 -19.796875 C 21.738281 -21.066406 20.222656 -21.703125 18.421875 -21.703125 C 16.648438 -21.703125 15.148438 -21.0625 13.921875 -19.78125 C 12.691406 -18.5 12.078125 -16.742188 12.078125 -14.515625 C 12.078125 -12.296875 12.691406 -10.546875 13.921875 -9.265625 C 15.148438 -7.984375 16.648438 -7.34375 18.421875 -7.34375 C 20.191406 -7.34375 21.703125 -7.988281 22.953125 -9.28125 C 24.203125 -10.582031 24.828125 -12.347656 24.828125 -14.578125 Z M 24.828125 -14.578125 "/></g></g></g><g fill="#000000" fill-opacity="1"><g transform="translate(231.594898, 255.45965)"><g><path d="M 21.078125 -29.359375 C 24.410156 -29.359375 27.082031 -28.253906 29.09375 -26.046875 C 31.101562 -23.847656 32.109375 -20.820312 32.109375 -16.96875 L 32.109375 0 L 23.265625 0 L 23.265625 -15.765625 C 23.265625 -17.710938 22.757812 -19.222656 21.75 -20.296875 C 20.75 -21.367188 19.398438 -21.90625 17.703125 -21.90625 C 15.992188 -21.90625 14.632812 -21.367188 13.625 -20.296875 C 12.625 -19.222656 12.125 -17.710938 12.125 -15.765625 L 12.125 0 L 3.234375 0 L 3.234375 -38.515625 L 12.125 -38.515625 L 12.125 -25.140625 C 13.03125 -26.421875 14.265625 -27.441406 15.828125 -28.203125 C 17.390625 -28.972656 19.140625 -29.359375 21.078125 -29.359375 Z M 21.078125 -29.359375 "/></g></g></g><g fill="#000000" fill-opacity="1"><g transform="translate(266.671815, 255.45965)"><g><path d="M 30.609375 -14.984375 C 30.609375 -14.148438 30.554688 -13.285156 30.453125 -12.390625 L 10.3125 -12.390625 C 10.445312 -10.585938 11.023438 -9.207031 12.046875 -8.25 C 13.066406 -7.289062 14.328125 -6.8125 15.828125 -6.8125 C 18.046875 -6.8125 19.585938 -7.75 20.453125 -9.625 L 29.921875 -9.625 C 29.441406 -7.71875 28.566406 -6 27.296875 -4.46875 C 26.035156 -2.945312 24.445312 -1.75 22.53125 -0.875 C 20.625 -0.0078125 18.492188 0.421875 16.140625 0.421875 C 13.285156 0.421875 10.75 -0.1875 8.53125 -1.40625 C 6.3125 -2.625 4.578125 -4.359375 3.328125 -6.609375 C 2.078125 -8.867188 1.453125 -11.503906 1.453125 -14.515625 C 1.453125 -17.535156 2.066406 -20.171875 3.296875 -22.421875 C 4.535156 -24.679688 6.265625 -26.414062 8.484375 -27.625 C 10.703125 -28.84375 13.253906 -29.453125 16.140625 -29.453125 C 18.941406 -29.453125 21.4375 -28.863281 23.625 -27.6875 C 25.8125 -26.507812 27.519531 -24.828125 28.75 -22.640625 C 29.988281 -20.453125 30.609375 -17.898438 30.609375 -14.984375 Z M 21.5 -17.328125 C 21.5 -18.859375 20.976562 -20.070312 19.9375 -20.96875 C 18.894531 -21.875 17.59375 -22.328125 16.03125 -22.328125 C 14.539062 -22.328125 13.28125 -21.890625 12.25 -21.015625 C 11.226562 -20.148438 10.597656 -18.921875 10.359375 -17.328125 Z M 21.5 -17.328125 "/></g></g></g><g fill="#000000" fill-opacity="1"><g transform="translate(298.730239, 255.45965)"><g><path d="M 12.125 -24.203125 C 13.164062 -25.796875 14.46875 -27.050781 16.03125 -27.96875 C 17.59375 -28.894531 19.328125 -29.359375 21.234375 -29.359375 L 21.234375 -19.9375 L 18.78125 -19.9375 C 16.5625 -19.9375 14.894531 -19.457031 13.78125 -18.5 C 12.675781 -17.550781 12.125 -15.878906 12.125 -13.484375 L 12.125 0 L 3.234375 0 L 3.234375 -29.046875 L 12.125 -29.046875 Z M 12.125 -24.203125 "/></g></g></g><g fill="#000000" fill-opacity="1"><g transform="translate(321.004606, 255.45965)"><g><path d="M 30.609375 -14.984375 C 30.609375 -14.148438 30.554688 -13.285156 30.453125 -12.390625 L 10.3125 -12.390625 C 10.445312 -10.585938 11.023438 -9.207031 12.046875 -8.25 C 13.066406 -7.289062 14.328125 -6.8125 15.828125 -6.8125 C 18.046875 -6.8125 19.585938 -7.75 20.453125 -9.625 L 29.921875 -9.625 C 29.441406 -7.71875 28.566406 -6 27.296875 -4.46875 C 26.035156 -2.945312 24.445312 -1.75 22.53125 -0.875 C 20.625 -0.0078125 18.492188 0.421875 16.140625 0.421875 C 13.285156 0.421875 10.75 -0.1875 8.53125 -1.40625 C 6.3125 -2.625 4.578125 -4.359375 3.328125 -6.609375 C 2.078125 -8.867188 1.453125 -11.503906 1.453125 -14.515625 C 1.453125 -17.535156 2.066406 -20.171875 3.296875 -22.421875 C 4.535156 -24.679688 6.265625 -26.414062 8.484375 -27.625 C 10.703125 -28.84375 13.253906 -29.453125 16.140625 -29.453125 C 18.941406 -29.453125 21.4375 -28.863281 23.625 -27.6875 C 25.8125 -26.507812 27.519531 -24.828125 28.75 -22.640625 C 29.988281 -20.453125 30.609375 -17.898438 30.609375 -14.984375 Z M 21.5 -17.328125 C 21.5 -18.859375 20.976562 -20.070312 19.9375 -20.96875 C 18.894531 -21.875 17.59375 -22.328125 16.03125 -22.328125 C 14.539062 -22.328125 13.28125 -21.890625 12.25 -21.015625 C 11.226562 -20.148438 10.597656 -18.921875 10.359375 -17.328125 Z M 21.5 -17.328125 "/></g></g></g><g fill="#000000" fill-opacity="1"><g transform="translate(74.759622, 283.154074)"><g><path d="M 9.828125 -11.15625 L 9.828125 0 L 8.375 0 L 8.375 -5.0625 L 2.6875 -5.0625 L 2.6875 0 L 1.234375 0 L 1.234375 -11.15625 L 2.6875 -11.15625 L 2.6875 -6.25 L 8.375 -6.25 L 8.375 -11.15625 Z M 9.828125 -11.15625 "/></g></g></g><g fill="#000000" fill-opacity="1"><g transform="translate(87.316963, 283.154074)"><g><path d="M 7.109375 0 L 4.453125 -4.5625 L 2.6875 -4.5625 L 2.6875 0 L 1.234375 0 L 1.234375 -11.15625 L 4.828125 -11.15625 C 5.671875 -11.15625 6.382812 -11.007812 6.96875 -10.71875 C 7.550781 -10.425781 7.984375 -10.035156 8.265625 -9.546875 C 8.554688 -9.054688 8.703125 -8.5 8.703125 -7.875 C 8.703125 -7.101562 8.476562 -6.421875 8.03125 -5.828125 C 7.59375 -5.242188 6.929688 -4.859375 6.046875 -4.671875 L 8.84375 0 Z M 2.6875 -5.734375 L 4.828125 -5.734375 C 5.617188 -5.734375 6.210938 -5.925781 6.609375 -6.3125 C 7.003906 -6.695312 7.203125 -7.21875 7.203125 -7.875 C 7.203125 -8.53125 7.003906 -9.039062 6.609375 -9.40625 C 6.222656 -9.769531 5.628906 -9.953125 4.828125 -9.953125 L 2.6875 -9.953125 Z M 2.6875 -5.734375 "/></g></g></g><g fill="#000000" fill-opacity="1"><g transform="translate(98.53063, 283.154074)"><g/></g></g><g fill="#000000" fill-opacity="1"><g transform="translate(104.289597, 283.154074)"><g><path d="M 12.546875 -11.078125 L 12.546875 0 L 11.09375 0 L 11.09375 -8.25 L 7.40625 0 L 6.390625 0 L 2.6875 -8.265625 L 2.6875 0 L 1.234375 0 L 1.234375 -11.078125 L 2.796875 -11.078125 L 6.890625 -1.921875 L 10.984375 -11.078125 Z M 12.546875 -11.078125 "/></g></g></g><g fill="#000000" fill-opacity="1"><g transform="translate(119.550284, 283.154074)"><g><path d="M 7.828125 -2.484375 L 2.953125 -2.484375 L 2.0625 0 L 0.53125 0 L 4.5625 -11.09375 L 6.234375 -11.09375 L 10.25 0 L 8.71875 0 Z M 7.40625 -3.65625 L 5.390625 -9.296875 L 3.375 -3.65625 Z M 7.40625 -3.65625 "/></g></g></g><g fill="#000000" fill-opacity="1"><g transform="translate(131.819689, 283.154074)"><g><path d="M 10 0 L 8.546875 0 L 2.6875 -8.875 L 2.6875 0 L 1.234375 0 L 1.234375 -11.171875 L 2.6875 -11.171875 L 8.546875 -2.296875 L 8.546875 -11.171875 L 10 -11.171875 Z M 10 0 "/></g></g></g><g fill="#000000" fill-opacity="1"><g transform="translate(144.55298, 283.154074)"><g><path d="M 7.828125 -2.484375 L 2.953125 -2.484375 L 2.0625 0 L 0.53125 0 L 4.5625 -11.09375 L 6.234375 -11.09375 L 10.25 0 L 8.71875 0 Z M 7.40625 -3.65625 L 5.390625 -9.296875 L 3.375 -3.65625 Z M 7.40625 -3.65625 "/></g></g></g><g fill="#000000" fill-opacity="1"><g transform="translate(156.822384, 283.154074)"><g><path d="M 9.6875 -7.921875 C 9.375 -8.566406 8.921875 -9.066406 8.328125 -9.421875 C 7.742188 -9.785156 7.0625 -9.96875 6.28125 -9.96875 C 5.507812 -9.96875 4.8125 -9.785156 4.1875 -9.421875 C 3.5625 -9.066406 3.066406 -8.554688 2.703125 -7.890625 C 2.347656 -7.222656 2.171875 -6.453125 2.171875 -5.578125 C 2.171875 -4.703125 2.347656 -3.929688 2.703125 -3.265625 C 3.066406 -2.609375 3.5625 -2.101562 4.1875 -1.75 C 4.8125 -1.394531 5.507812 -1.21875 6.28125 -1.21875 C 7.375 -1.21875 8.269531 -1.539062 8.96875 -2.1875 C 9.675781 -2.84375 10.085938 -3.722656 10.203125 -4.828125 L 5.765625 -4.828125 L 5.765625 -6.015625 L 11.765625 -6.015625 L 11.765625 -4.890625 C 11.671875 -3.972656 11.378906 -3.132812 10.890625 -2.375 C 10.398438 -1.613281 9.753906 -1.007812 8.953125 -0.5625 C 8.160156 -0.125 7.269531 0.09375 6.28125 0.09375 C 5.25 0.09375 4.304688 -0.144531 3.453125 -0.625 C 2.597656 -1.113281 1.921875 -1.789062 1.421875 -2.65625 C 0.929688 -3.519531 0.6875 -4.492188 0.6875 -5.578125 C 0.6875 -6.671875 0.929688 -7.648438 1.421875 -8.515625 C 1.921875 -9.390625 2.597656 -10.066406 3.453125 -10.546875 C 4.304688 -11.035156 5.25 -11.28125 6.28125 -11.28125 C 7.46875 -11.28125 8.515625 -10.984375 9.421875 -10.390625 C 10.335938 -9.804688 11.003906 -8.984375 11.421875 -7.921875 Z M 9.6875 -7.921875 "/></g></g></g><g fill="#000000" fill-opacity="1"><g transform="translate(170.755394, 283.154074)"><g><path d="M 2.6875 -9.96875 L 2.6875 -6.234375 L 6.75 -6.234375 L 6.75 -5.046875 L 2.6875 -5.046875 L 2.6875 -1.203125 L 7.234375 -1.203125 L 7.234375 0 L 1.234375 0 L 1.234375 -11.171875 L 7.234375 -11.171875 L 7.234375 -9.96875 Z M 2.6875 -9.96875 "/></g></g></g><g fill="#000000" fill-opacity="1"><g transform="translate(180.44942, 283.154074)"><g><path d="M 12.546875 -11.078125 L 12.546875 0 L 11.09375 0 L 11.09375 -8.25 L 7.40625 0 L 6.390625 0 L 2.6875 -8.265625 L 2.6875 0 L 1.234375 0 L 1.234375 -11.078125 L 2.796875 -11.078125 L 6.890625 -1.921875 L 10.984375 -11.078125 Z M 12.546875 -11.078125 "/></g></g></g><g fill="#000000" fill-opacity="1"><g transform="translate(195.710104, 283.154074)"><g><path d="M 2.6875 -9.96875 L 2.6875 -6.234375 L 6.75 -6.234375 L 6.75 -5.046875 L 2.6875 -5.046875 L 2.6875 -1.203125 L 7.234375 -1.203125 L 7.234375 0 L 1.234375 0 L 1.234375 -11.171875 L 7.234375 -11.171875 L 7.234375 -9.96875 Z M 2.6875 -9.96875 "/></g></g></g><g fill="#000000" fill-opacity="1"><g transform="translate(205.40413, 283.154074)"><g><path d="M 10 0 L 8.546875 0 L 2.6875 -8.875 L 2.6875 0 L 1.234375 0 L 1.234375 -11.171875 L 2.6875 -11.171875 L 8.546875 -2.296875 L 8.546875 -11.171875 L 10 -11.171875 Z M 10 0 "/></g></g></g><g fill="#000000" fill-opacity="1"><g transform="translate(218.137421, 283.154074)"><g><path d="M 8.09375 -11.15625 L 8.09375 -9.96875 L 5.0625 -9.96875 L 5.0625 0 L 3.59375 0 L 3.59375 -9.96875 L 0.546875 -9.96875 L 0.546875 -11.15625 Z M 8.09375 -11.15625 "/></g></g></g><g fill="#000000" fill-opacity="1"><g transform="translate(228.279335, 283.154074)"><g/></g></g><g fill="#000000" fill-opacity="1"><g transform="translate(234.038299, 283.154074)"><g><path d="M 4.765625 0.109375 C 4.023438 0.109375 3.363281 -0.0195312 2.78125 -0.28125 C 2.207031 -0.539062 1.753906 -0.898438 1.421875 -1.359375 C 1.085938 -1.828125 0.914062 -2.363281 0.90625 -2.96875 L 2.46875 -2.96875 C 2.519531 -2.445312 2.734375 -2.007812 3.109375 -1.65625 C 3.492188 -1.300781 4.046875 -1.125 4.765625 -1.125 C 5.460938 -1.125 6.007812 -1.296875 6.40625 -1.640625 C 6.8125 -1.984375 7.015625 -2.425781 7.015625 -2.96875 C 7.015625 -3.394531 6.894531 -3.742188 6.65625 -4.015625 C 6.414062 -4.285156 6.117188 -4.488281 5.765625 -4.625 C 5.421875 -4.757812 4.953125 -4.910156 4.359375 -5.078125 C 3.617188 -5.265625 3.023438 -5.453125 2.578125 -5.640625 C 2.140625 -5.835938 1.757812 -6.140625 1.4375 -6.546875 C 1.125 -6.960938 0.96875 -7.515625 0.96875 -8.203125 C 0.96875 -8.816406 1.125 -9.359375 1.4375 -9.828125 C 1.75 -10.296875 2.179688 -10.65625 2.734375 -10.90625 C 3.296875 -11.164062 3.941406 -11.296875 4.671875 -11.296875 C 5.710938 -11.296875 6.566406 -11.035156 7.234375 -10.515625 C 7.898438 -9.992188 8.28125 -9.300781 8.375 -8.4375 L 6.765625 -8.4375 C 6.710938 -8.863281 6.488281 -9.238281 6.09375 -9.5625 C 5.695312 -9.882812 5.175781 -10.046875 4.53125 -10.046875 C 3.914062 -10.046875 3.414062 -9.890625 3.03125 -9.578125 C 2.65625 -9.265625 2.46875 -8.820312 2.46875 -8.25 C 2.46875 -7.84375 2.582031 -7.507812 2.8125 -7.25 C 3.039062 -7 3.320312 -6.804688 3.65625 -6.671875 C 3.988281 -6.546875 4.460938 -6.394531 5.078125 -6.21875 C 5.804688 -6.019531 6.394531 -5.820312 6.84375 -5.625 C 7.289062 -5.425781 7.675781 -5.117188 8 -4.703125 C 8.320312 -4.296875 8.484375 -3.742188 8.484375 -3.046875 C 8.484375 -2.492188 8.335938 -1.976562 8.046875 -1.5 C 7.753906 -1.019531 7.328125 -0.628906 6.765625 -0.328125 C 6.203125 -0.0351562 5.535156 0.109375 4.765625 0.109375 Z M 4.765625 0.109375 "/></g></g></g><g fill="#000000" fill-opacity="1"><g transform="translate(244.916033, 283.154074)"><g><path d="M 9.046875 -11.15625 L 5.40625 -4.203125 L 5.40625 0 L 3.953125 0 L 3.953125 -4.203125 L 0.296875 -11.15625 L 1.921875 -11.15625 L 4.671875 -5.5 L 7.421875 -11.15625 Z M 9.046875 -11.15625 "/></g></g></g><g fill="#000000" fill-opacity="1"><g transform="translate(255.745783, 283.154074)"><g><path d="M 4.765625 0.109375 C 4.023438 0.109375 3.363281 -0.0195312 2.78125 -0.28125 C 2.207031 -0.539062 1.753906 -0.898438 1.421875 -1.359375 C 1.085938 -1.828125 0.914062 -2.363281 0.90625 -2.96875 L 2.46875 -2.96875 C 2.519531 -2.445312 2.734375 -2.007812 3.109375 -1.65625 C 3.492188 -1.300781 4.046875 -1.125 4.765625 -1.125 C 5.460938 -1.125 6.007812 -1.296875 6.40625 -1.640625 C 6.8125 -1.984375 7.015625 -2.425781 7.015625 -2.96875 C 7.015625 -3.394531 6.894531 -3.742188 6.65625 -4.015625 C 6.414062 -4.285156 6.117188 -4.488281 5.765625 -4.625 C 5.421875 -4.757812 4.953125 -4.910156 4.359375 -5.078125 C 3.617188 -5.265625 3.023438 -5.453125 2.578125 -5.640625 C 2.140625 -5.835938 1.757812 -6.140625 1.4375 -6.546875 C 1.125 -6.960938 0.96875 -7.515625 0.96875 -8.203125 C 0.96875 -8.816406 1.125 -9.359375 1.4375 -9.828125 C 1.75 -10.296875 2.179688 -10.65625 2.734375 -10.90625 C 3.296875 -11.164062 3.941406 -11.296875 4.671875 -11.296875 C 5.710938 -11.296875 6.566406 -11.035156 7.234375 -10.515625 C 7.898438 -9.992188 8.28125 -9.300781 8.375 -8.4375 L 6.765625 -8.4375 C 6.710938 -8.863281 6.488281 -9.238281 6.09375 -9.5625 C 5.695312 -9.882812 5.175781 -10.046875 4.53125 -10.046875 C 3.914062 -10.046875 3.414062 -9.890625 3.03125 -9.578125 C 2.65625 -9.265625 2.46875 -8.820312 2.46875 -8.25 C 2.46875 -7.84375 2.582031 -7.507812 2.8125 -7.25 C 3.039062 -7 3.320312 -6.804688 3.65625 -6.671875 C 3.988281 -6.546875 4.460938 -6.394531 5.078125 -6.21875 C 5.804688 -6.019531 6.394531 -5.820312 6.84375 -5.625 C 7.289062 -5.425781 7.675781 -5.117188 8 -4.703125 C 8.320312 -4.296875 8.484375 -3.742188 8.484375 -3.046875 C 8.484375 -2.492188 8.335938 -1.976562 8.046875 -1.5 C 7.753906 -1.019531 7.328125 -0.628906 6.765625 -0.328125 C 6.203125 -0.0351562 5.535156 0.109375 4.765625 0.109375 Z M 4.765625 0.109375 "/></g></g></g><g fill="#000000" fill-opacity="1"><g transform="translate(266.623517, 283.154074)"><g><path d="M 8.09375 -11.15625 L 8.09375 -9.96875 L 5.0625 -9.96875 L 5.0625 0 L 3.59375 0 L 3.59375 -9.96875 L 0.546875 -9.96875 L 0.546875 -11.15625 Z M 8.09375 -11.15625 "/></g></g></g><g fill="#000000" fill-opacity="1"><g transform="translate(276.765431, 283.154074)"><g><path d="M 2.6875 -9.96875 L 2.6875 -6.234375 L 6.75 -6.234375 L 6.75 -5.046875 L 2.6875 -5.046875 L 2.6875 -1.203125 L 7.234375 -1.203125 L 7.234375 0 L 1.234375 0 L 1.234375 -11.171875 L 7.234375 -11.171875 L 7.234375 -9.96875 Z M 2.6875 -9.96875 "/></g></g></g><g fill="#000000" fill-opacity="1"><g transform="translate(286.459468, 283.154074)"><g><path d="M 12.546875 -11.078125 L 12.546875 0 L 11.09375 0 L 11.09375 -8.25 L 7.40625 0 L 6.390625 0 L 2.6875 -8.265625 L 2.6875 0 L 1.234375 0 L 1.234375 -11.078125 L 2.796875 -11.078125 L 6.890625 -1.921875 L 10.984375 -11.078125 Z M 12.546875 -11.078125 "/></g></g></g></svg>